<svg width="31" height="31" viewBox="0 0 31 31" fill="none" xmlns="http://www.w3.org/2000/svg">
<path d="M31 0L8 0C3.58172 0 0 3.58172 0 8L0 31L23 31C27.4183 31 31 27.4183 31 23L31 0Z" fill="#EDEFF6"/>
<path d="M13.4437 19.1112V18.0836C13.4437 17.5127 13.5696 16.9917 13.8214 16.5207C14.0731 16.0497 14.3767 15.6572 14.7322 15.3432C15.0876 15.0292 15.4431 14.7295 15.7985 14.4441C16.154 14.1443 16.4576 13.8161 16.7094 13.4593C16.9611 13.0882 17.087 12.6957 17.087 12.2818C17.087 11.7822 16.8797 11.3612 16.465 11.0186C16.0503 10.6761 15.5393 10.5048 14.9321 10.5048C14.1176 10.5048 13.3326 10.8046 12.5773 11.404L11 9.54144C12.1256 8.51381 13.5177 8 15.1765 8C16.4946 8 17.635 8.37109 18.5977 9.11326C19.5603 9.84116 20.0417 10.8117 20.0417 12.0249C20.0417 12.6814 19.9084 13.2737 19.6418 13.8018C19.3752 14.3299 19.0494 14.7652 18.6643 15.1077C18.2792 15.4503 17.8942 15.7785 17.5091 16.0925C17.1389 16.3923 16.8204 16.7277 16.5538 17.0988C16.2873 17.4698 16.154 17.8623 16.154 18.2762V19.1112H13.4437ZM13.4215 23.5V20.9523H16.154V23.5H13.4215Z" fill="#B0B3BC"/>
</svg>
